<svg xmlns="http://www.w3.org/2000/svg" version="1.1" xmlns:xlink="http://www.w3.org/1999/xlink" width="1500" height="1500" viewBox="0 0 1500 1500"><rect width="1500" height="1500" x="0" y="0" id="background" stroke="transparent" fill="#000000"></rect><svg xml:space="preserve" width="1000" height="1000" data-version="2" data-id="lg_sMJvZfO2or76drhFSv" viewBox="0 0 568 96" x="250" y="250"><rect width="100%" height="100%" fill="transparent"></rect><path fill="snow" d="M131.18 74.19V5.99h8.53v31.64l33.2-31.64h11.6l-26.14 24.96 26.71 43.24h-10.32L151.83 37.2l-12.12 11.56v25.43Z"></path><rect width="53.9" height="68.2" x="-26.95" y="-34.1" fill="none" rx="0" ry="0" transform="translate(158.63 40.59)"></rect><path fill="snow" d="M210.72 75.33q-7.29 0-12.62-3.27-5.33-3.27-8.22-9.26-2.89-5.99-2.89-14.14 0-8.19 2.89-14.21 2.89-6.01 8.15-9.28 5.26-3.27 12.36-3.27 4.07 0 8.17 1.3 4.1 1.31 7.48 4.5 3.39 3.2 5.45 8.76 2.06 5.57 2.06 14.05h-41.44v-6.44h34.53l-2.28 2.98q-.23-6.72-2.18-10.8-1.94-4.07-5.04-5.89-3.1-1.83-6.89-1.83-4.5 0-7.77 2.35-3.27 2.34-5.02 6.84-1.75 4.5-1.75 10.99 0 9.57 3.91 14.78 3.9 5.21 11.1 5.21 5.16 0 8.69-2.61 3.53-2.6 5.19-7.53l7.81 2.65q-1.84 4.45-4.92 7.6-3.08 3.15-7.32 4.84-4.24 1.68-9.45 1.68"></path><rect width="46.56" height="53.43" x="-23.28" y="-26.71" fill="none" rx="0" ry="0" transform="translate(210.77 49.12)"></rect><path fill="snow" d="M245.32 92.66v-6.63h7.76q.86 0 1.33-.54.47-.55.9-1.73L259 73.2l-.8 3.64-20.56-53.8h8.91l16.29 47.12-1.75-.42 16.24-46.7h8.81l-24.39 63.89q-.99 2.61-3.36 4.17t-4.93 1.56Z"></path><rect width="48.5" height="69.62" x="-24.25" y="-34.81" fill="none" rx="0" ry="0" transform="translate(262.39 58.35)"></rect><path fill="snow" d="M319.03 75.33q-5.02 0-9.95-2.51-4.92-2.51-7.43-8.48l.42-.38v10.23h-7.48V3.14h7.96v30.55l-.71-.75q2.08-5.59 6.91-8.32 4.83-2.72 10.28-2.72 6.25 0 10.99 3.27t7.39 9.28q2.65 6.02 2.65 14.21 0 8.19-2.68 14.19-2.67 5.99-7.41 9.23-4.73 3.25-10.94 3.25m-2.18-6.63q6.35 0 10.42-5.24 4.07-5.23 4.07-14.99 0-9.47-3.93-14.7-3.93-5.24-10.46-5.24-3.98 0-7.32 2.09-3.34 2.08-5.33 6.48-1.99 4.41-1.99 11.37 0 10.28 4.26 15.25 4.27 4.98 10.28 4.98"></path><rect width="45.47" height="72.19" x="-22.73" y="-36.09" fill="none" rx="0" ry="0" transform="translate(317.82 39.73)"></rect><path fill="snow" d="M350.59 74.19V23.04h7.49v10.84l-.29-1.23q2.27-5.3 6.85-8.03 4.57-2.72 9.25-2.72 1.38 0 2.68.24 1.3.23 2.44.8l-1.04 7.49q-2.61-.81-5.16-.81-1.61 0-4.01.64-2.39.64-4.73 2.56-2.35 1.92-3.93 5.71-1.59 3.78-1.59 10.08v25.58Z"></path><rect width="28.42" height="52.29" x="-14.21" y="-26.14" fill="none" rx="0" ry="0" transform="translate(365.3 48.55)"></rect><path fill="snow" d="M387.36 74.19V23.04h7.96v51.15Zm3.98-59.73q-2.74 0-4.69-1.94-1.94-1.94-1.94-4.69 0-2.79 1.94-4.71 1.95-1.92 4.69-1.92 2.8 0 4.72 1.92 1.91 1.92 1.91 4.71 0 2.75-1.91 4.69-1.92 1.94-4.72 1.94"></path><rect width="13.26" height="72.99" x="-6.63" y="-36.49" fill="none" rx="0" ry="0" transform="translate(391.84 38.2)"></rect><path fill="snow" d="M426.84 75.33q-6.21 0-10.97-3.27-4.76-3.27-7.41-9.28-2.65-6.02-2.65-14.21 0-8.2 2.67-14.19 2.68-5.99 7.41-9.23 4.74-3.25 10.95-3.25 5.02 0 9.94 2.51 4.93 2.51 7.44 8.48l-.9.38V3.14h7.95v71.05h-7.48V63.53l.24.76q-2.09 5.59-6.92 8.31-4.83 2.73-10.27 2.73m2.08-6.63q4.03 0 7.34-2.09 3.32-2.08 5.31-6.51 1.98-4.43 1.98-11.34 0-10.33-4.26-15.28-4.26-4.95-10.28-4.95-6.34 0-10.42 5.24-4.07 5.23-4.07 14.99 0 9.47 3.93 14.7 3.93 5.24 10.47 5.24"></path><rect width="45.46" height="72.19" x="-22.73" y="-36.09" fill="none" rx="0" ry="0" transform="translate(429.04 39.73)"></rect><path fill="snow" d="M483.45 93.8q-11.41 0-16.81-3.2-5.4-3.2-5.4-9.87 0-3.79 1.94-6.78 1.94-2.98 6.73-4.59-1.8-1.09-2.94-2.89t-1.14-4.03q0-2.65 1.66-4.76 1.66-2.1 4.74-3-3.79-2.23-5.9-6.04-2.11-3.82-2.11-8.88 0-5.5 2.44-9.5t6.96-6.18q4.53-2.18 10.78-2.18 6.25 0 10.82 2.18t7.06 6.2q2.49 4.03 2.49 9.57 0 5.45-2.49 9.4-2.49 3.96-7.08 6.11-4.6 2.16-10.94 2.16h-4.41q-5.97 0-5.97 3.55 0 3.36 5.78 3.36h10.23q6.07 0 9.78 1.4 3.72 1.4 5.69 3.6 1.96 2.2 2.67 4.76.71 2.56.71 4.88 0 7.53-5.44 11.13-5.45 3.6-16.91 3.6Zm0-6.35h2.94q14.11 0 14.11-8.43 0-3.5-2.53-5.73-2.53-2.23-8.64-2.23h-8.81q-4.74 0-7.91 1.92-3.18 1.92-3.18 6.28 0 4.17 3.44 6.18 3.43 2.01 10.58 2.01m.95-35.52q6.01 0 9.24-3.1 3.22-3.11 3.22-8.98 0-5.82-3.22-9.04-3.23-3.23-9.24-3.23-5.97 0-9.14 3.2-3.17 3.2-3.17 9.07t3.17 8.98q3.17 3.1 9.14 3.1m8.43-24.68v-5.07q0-3.07 2.27-5.09 2.28-2.01 5.31-2.01h6.16v6.63h-5.07q-1.47 0-1.92.52-.45.52-.45 2.09v2.93Z"></path><rect width="47.5" height="78.72" x="-23.75" y="-39.36" fill="none" rx="0" ry="0" transform="translate(485.49 54.94)"></rect><path fill="snow" d="M538.51 75.33q-7.3 0-12.63-3.27-5.32-3.27-8.21-9.26-2.89-5.99-2.89-14.14 0-8.19 2.89-14.21 2.89-6.01 8.14-9.28 5.26-3.27 12.36-3.27 4.08 0 8.17 1.3 4.1 1.31 7.49 4.5 3.38 3.2 5.45 8.76 2.06 5.57 2.06 14.05h-41.45v-6.44h34.53l-2.27 2.98q-.24-6.72-2.18-10.8-1.94-4.07-5.05-5.89-3.1-1.83-6.89-1.83-4.5 0-7.77 2.35-3.26 2.34-5.02 6.84-1.75 4.5-1.75 10.99 0 9.57 3.91 14.78 3.91 5.21 11.11 5.21 5.16 0 8.69-2.61 3.53-2.6 5.18-7.53l7.82 2.65q-1.85 4.45-4.93 7.6-3.08 3.15-7.31 4.84-4.24 1.68-9.45 1.68"></path><rect width="46.56" height="53.43" x="-23.28" y="-26.71" fill="none" rx="0" ry="0" transform="translate(538.56 49.12)"></rect><path fill="#fff" d="m98.488 39.934-28.805-6.44c.073-5.14-3.317-9.762-8.36-10.89-5.813-1.3-11.615 2.53-12.965 8.556a11.275 11.275 0 0 0-.22 1.472 11.467 11.467 0 0 0-3.907 2.802c-4.149 4.572-3.937 11.52.472 15.525 3.95 3.584 9.93 3.584 14.115.26l18.295 16.605-2.071 2.28c-.273.301-.26.761.032 1.023l1.406 1.28a.723.723 0 0 0 1.021-.068l2.07-2.281 1.035.938c.582.529 1.5.466 2.05-.14l.874-.963c.55-.606.525-1.524-.055-2.052L61.617 48.003a11.33 11.33 0 0 0 1.466-4.28c2.544-1.152 4.648-3.29 5.76-6.05l19.067 4.264-1.033 4.616c-.09.399.15.79.533.876l1.856.416a.724.724 0 0 0 .855-.565l1.03-4.617 1.8.403-.671 3.006c-.09.398.15.79.534.874l1.856.417a.726.726 0 0 0 .853-.566l.673-3.005 1.364.305c.765.172 1.533-.338 1.71-1.135l.284-1.267c.177-.802-.3-1.588-1.066-1.76M57.81 47.761c-2.908 3.204-7.77 3.527-10.86.723-3.09-2.806-3.237-7.677-.33-10.881a8.07 8.07 0 0 1 1.74-1.446c.893 4.019 3.919 7.334 8.082 8.265 1.052.235 2.102.293 3.127.21a8.056 8.056 0 0 1-1.759 3.13m-.638-6.604c-3.028-.678-5.203-3.15-5.735-6.107 2.138-.295 4.356.297 6.046 1.83a7.362 7.362 0 0 1 2.325 4.373 7.293 7.293 0 0 1-2.636-.096m9.084-5.995a7.954 7.954 0 0 1-3.312 4.882 10.479 10.479 0 0 0-3.215-5.641c-2.295-2.083-5.275-2.946-8.19-2.661.995-4.152 5.017-6.777 9.052-5.876 4.074.911 6.609 5.073 5.665 9.296m-19.493-8.917-1.218-5.905a6.7 6.7 0 0 0-7.915-5.208L11.005 20.69A6.7 6.7 0 0 0 5.8 28.606l1.217 5.907a6.7 6.7 0 0 0 7.916 5.207l26.624-5.559a6.7 6.7 0 0 0 5.208-7.916"></path></svg></svg>